<svg id="svg" version="1.1" xmlns="http://www.w3.org/2000/svg" xmlns:xlink="http://www.w3.org/1999/xlink" width="400" height="400" viewBox="0, 0, 400,400"><g id="svgg"><path id="path0" d="M69.833 107.667 L 69.833 159.000 77.667 159.000 L 85.500 159.000 85.500 142.275 L 85.500 125.550 88.708 122.396 C 91.270 119.877,97.420 113.885,97.839 113.500 C 97.888 113.454,98.688 112.676,99.614 111.770 L 101.299 110.123 114.259 127.437 C 121.387 136.959,129.613 147.956,132.540 151.875 L 137.862 159.000 147.681 159.000 C 153.081 159.000,157.500 158.971,157.500 158.935 C 157.500 158.900,155.437 156.144,152.916 152.810 C 150.395 149.477,145.867 143.487,142.853 139.500 C 139.838 135.512,136.742 131.425,135.972 130.417 C 135.202 129.408,131.793 124.908,128.397 120.417 C 125.000 115.925,121.336 111.087,120.255 109.667 C 119.173 108.246,116.969 105.331,115.358 103.188 L 112.429 99.293 114.339 97.455 C 115.390 96.443,117.412 94.482,118.833 93.097 C 123.215 88.826,127.036 85.116,132.414 79.913 C 135.255 77.165,138.929 73.604,140.580 72.000 C 142.231 70.396,144.857 67.847,146.416 66.335 C 147.975 64.824,150.300 62.564,151.583 61.314 C 152.867 60.064,154.554 58.434,155.333 57.692 L 156.750 56.344 146.334 56.339 L 135.917 56.333 110.792 81.458 L 85.667 106.583 85.666 85.083 C 85.666 73.258,85.617 61.952,85.556 59.958 L 85.447 56.333 77.640 56.333 L 69.833 56.333 69.833 107.667 M182.500 72.167 L 182.500 82.000 174.500 82.000 L 166.500 82.000 166.500 89.333 L 166.500 96.667 174.500 96.667 L 182.500 96.667 182.500 127.833 L 182.500 159.000 190.000 159.000 L 197.500 159.000 197.500 127.833 L 197.500 96.667 206.417 96.667 L 215.333 96.667 215.333 89.333 L 215.333 82.000 206.417 82.000 L 197.500 82.000 197.500 72.167 L 197.500 62.333 190.000 62.333 L 182.500 62.333 182.500 72.167 M238.833 72.167 L 238.833 82.000 230.833 82.000 L 222.833 82.000 222.833 89.333 L 222.833 96.667 230.833 96.667 L 238.833 96.667 238.833 127.833 L 238.833 159.000 246.333 159.000 L 253.833 159.000 253.833 127.833 L 253.833 96.667 262.750 96.667 L 271.667 96.667 271.667 89.333 L 271.667 82.000 262.750 82.000 L 253.833 82.000 253.833 72.167 L 253.833 62.333 246.333 62.333 L 238.833 62.333 238.833 72.167 M69.833 291.004 L 69.833 342.354 92.125 342.285 C 115.689 342.211,115.722 342.210,120.369 341.414 C 138.093 338.377,151.162 325.830,156.004 307.204 C 159.363 294.285,158.535 280.373,153.655 267.750 C 148.436 254.247,136.261 243.825,122.333 240.940 C 116.560 239.744,117.540 239.784,92.458 239.715 L 69.833 239.653 69.833 291.004 M115.750 255.292 C 132.208 257.985,142.000 271.249,142.000 290.851 C 142.000 311.005,132.196 324.225,115.417 326.697 C 113.074 327.042,87.093 327.393,85.907 327.096 L 85.500 326.994 85.500 291.025 C 85.500 271.242,85.554 255.001,85.621 254.935 C 85.954 254.602,113.529 254.929,115.750 255.292 M204.301 264.008 C 188.025 266.378,175.544 277.980,172.103 293.938 C 166.629 319.327,181.303 340.747,206.000 343.420 C 218.488 344.771,232.295 340.635,240.654 333.040 L 241.725 332.067 238.093 326.742 C 236.096 323.813,234.435 321.387,234.402 321.352 C 234.333 321.276,234.163 321.396,232.394 322.765 C 225.243 328.299,220.724 330.000,213.172 330.000 C 200.422 330.000,190.984 323.816,187.356 313.083 C 186.714 311.184,185.942 307.613,186.133 307.422 C 186.182 307.373,199.439 307.333,215.593 307.333 L 244.963 307.333 245.090 303.875 C 245.399 295.460,244.204 288.984,241.246 283.033 C 234.263 268.988,220.120 261.704,204.301 264.008 M253.398 266.625 C 253.702 267.335,254.648 269.567,255.500 271.583 C 256.351 273.600,258.190 277.950,259.586 281.250 C 260.981 284.550,263.344 290.137,264.836 293.667 C 266.328 297.196,268.819 303.083,270.370 306.750 C 271.922 310.417,274.302 316.042,275.659 319.250 C 277.016 322.458,279.364 328.008,280.878 331.583 C 282.392 335.158,284.028 339.041,284.514 340.211 L 285.399 342.338 290.807 342.294 L 296.215 342.250 301.095 331.250 C 303.780 325.200,306.312 319.500,306.722 318.583 C 307.132 317.667,311.794 307.167,317.081 295.250 C 322.368 283.333,326.982 272.946,327.333 272.167 C 328.059 270.556,330.151 265.857,330.282 265.542 C 330.351 265.377,328.757 265.333,322.631 265.333 L 314.893 265.333 312.290 271.458 C 310.859 274.827,307.955 281.671,305.838 286.667 C 303.721 291.662,301.921 295.900,301.837 296.083 C 301.753 296.267,300.178 299.979,298.335 304.333 C 296.493 308.688,294.918 312.400,294.835 312.583 C 294.752 312.767,294.035 314.454,293.240 316.333 C 292.445 318.212,291.733 319.862,291.658 320.000 C 291.487 320.311,291.712 320.826,287.413 310.250 C 286.258 307.408,284.991 304.296,284.596 303.333 C 284.201 302.371,283.572 300.833,283.198 299.917 C 281.601 296.004,280.776 293.987,280.164 292.500 C 279.806 291.629,277.893 286.942,275.913 282.083 C 273.934 277.225,271.982 272.443,271.577 271.457 C 271.171 270.471,270.508 268.858,270.104 267.874 C 269.699 266.889,269.317 265.915,269.256 265.708 L 269.144 265.333 260.995 265.333 L 252.846 265.333 253.398 266.625 M213.750 277.737 C 222.396 279.274,229.068 286.065,229.766 294.042 L 229.879 295.333 208.283 295.333 L 186.688 295.333 186.786 294.708 C 187.316 291.339,189.697 286.554,192.125 283.980 C 196.548 279.291,206.434 276.437,213.750 277.737 " stroke="none" fill="#fbfbfb" fill-rule="evenodd"></path><path id="path1" d="M74.167 0.100 C 74.029 0.134,72.754 0.279,71.333 0.421 C 68.043 0.752,66.419 1.009,62.500 1.820 C 61.536 2.020,57.997 2.945,56.917 3.280 C 55.136 3.832,51.575 5.049,51.417 5.159 C 51.325 5.224,50.875 5.411,50.417 5.577 C 49.688 5.840,49.105 6.077,47.750 6.662 C 46.393 7.247,41.832 9.540,40.719 10.196 C 39.969 10.638,39.275 11.000,39.178 11.000 C 39.080 11.000,39.000 11.075,39.000 11.167 C 39.000 11.258,38.930 11.333,38.845 11.333 C 38.706 11.333,36.038 12.956,35.833 13.165 C 35.787 13.212,35.300 13.547,34.750 13.909 C 33.799 14.536,30.510 16.954,30.333 17.156 C 30.287 17.208,29.689 17.699,29.004 18.246 C 28.319 18.794,27.640 19.356,27.496 19.496 C 27.352 19.636,26.900 20.043,26.492 20.401 C 23.910 22.666,20.284 26.452,18.216 29.042 C 17.686 29.706,17.208 30.287,17.156 30.333 C 16.954 30.510,14.536 33.799,13.909 34.750 C 13.547 35.300,13.212 35.787,13.165 35.833 C 12.956 36.038,11.333 38.706,11.333 38.845 C 11.333 38.930,11.258 39.000,11.167 39.000 C 11.075 39.000,11.000 39.080,11.000 39.178 C 11.000 39.275,10.638 39.969,10.196 40.719 C 9.540 41.832,7.247 46.393,6.662 47.750 C 6.077 49.105,5.840 49.688,5.577 50.417 C 5.411 50.875,5.224 51.325,5.159 51.417 C 5.049 51.575,3.832 55.136,3.280 56.917 C 2.945 57.997,2.020 61.536,1.820 62.500 C 1.051 66.218,0.785 67.851,0.382 71.333 C -0.083 75.355,-0.083 324.645,0.382 328.667 C 0.785 332.149,1.051 333.782,1.820 337.500 C 2.020 338.464,2.945 342.003,3.280 343.083 C 3.838 344.885,5.049 348.426,5.161 348.583 C 5.226 348.675,5.456 349.238,5.673 349.833 C 5.890 350.429,6.164 351.104,6.283 351.333 C 6.401 351.563,6.498 351.812,6.499 351.888 C 6.501 352.147,9.349 357.849,10.175 359.248 C 10.629 360.016,11.000 360.725,11.000 360.822 C 11.000 360.920,11.075 361.000,11.167 361.000 C 11.258 361.000,11.333 361.070,11.333 361.155 C 11.333 361.294,12.956 363.962,13.165 364.167 C 13.212 364.212,13.547 364.700,13.909 365.250 C 14.468 366.097,16.586 368.980,17.271 369.827 C 21.448 374.985,25.015 378.552,30.173 382.729 C 31.020 383.414,33.903 385.532,34.750 386.091 C 35.300 386.453,35.787 386.788,35.833 386.835 C 36.038 387.044,38.706 388.667,38.845 388.667 C 38.930 388.667,39.000 388.742,39.000 388.833 C 39.000 388.925,39.080 389.000,39.178 389.000 C 39.275 389.000,39.977 389.367,40.736 389.816 C 42.231 390.698,47.654 393.391,48.333 393.587 C 48.563 393.653,48.825 393.761,48.917 393.827 C 49.008 393.892,49.571 394.120,50.167 394.333 C 50.762 394.547,51.325 394.775,51.417 394.842 C 51.573 394.955,55.058 396.146,56.917 396.721 C 58.003 397.057,61.540 397.981,62.500 398.180 C 66.218 398.949,67.851 399.215,71.333 399.618 C 75.332 400.080,324.627 400.083,328.667 399.621 C 332.084 399.230,333.715 398.964,337.417 398.196 C 340.680 397.519,347.841 395.311,349.917 394.341 C 350.100 394.255,350.925 393.903,351.750 393.558 C 353.296 392.911,357.713 390.735,359.333 389.822 C 361.312 388.708,361.825 388.393,363.917 387.009 C 370.230 382.830,376.187 377.609,380.666 372.329 C 381.169 371.736,381.619 371.212,381.666 371.167 C 381.838 370.997,383.105 369.395,383.577 368.750 C 383.846 368.383,384.109 368.046,384.163 368.000 C 384.434 367.767,386.748 364.398,387.847 362.636 C 389.783 359.534,392.602 354.209,393.618 351.739 C 397.220 342.975,399.041 335.658,399.837 326.750 C 400.034 324.541,400.034 75.459,399.837 73.250 C 399.361 67.922,398.424 62.808,396.998 57.750 C 396.708 56.719,395.002 51.644,394.758 51.083 C 394.638 50.808,394.375 50.171,394.173 49.667 C 393.456 47.878,393.077 47.051,391.692 44.260 C 390.921 42.707,390.000 40.962,389.645 40.382 C 389.290 39.802,389.000 39.299,389.000 39.264 C 389.000 39.169,387.020 36.032,386.361 35.083 C 385.005 33.133,384.255 32.078,384.169 32.000 C 384.118 31.954,383.671 31.392,383.175 30.750 C 377.528 23.441,368.267 15.182,361.667 11.569 C 361.346 11.394,361.058 11.194,361.028 11.125 C 360.997 11.056,360.906 11.000,360.825 11.000 C 360.743 11.000,360.056 10.635,359.297 10.190 C 357.713 9.260,352.936 6.899,351.333 6.254 C 350.738 6.015,350.100 5.747,349.917 5.661 C 349.147 5.297,345.695 4.095,343.083 3.281 C 341.979 2.937,338.465 2.021,337.417 1.804 C 334.053 1.106,332.067 0.777,328.833 0.378 C 326.761 0.123,75.182 -0.152,74.167 0.100 M85.667 81.458 L 85.667 106.583 110.792 81.458 L 135.917 56.333 146.292 56.333 C 155.461 56.333,157.342 56.400,156.510 56.694 C 156.424 56.725,155.055 58.021,153.468 59.575 C 151.881 61.128,149.383 63.563,147.917 64.984 C 146.450 66.406,144.050 68.737,142.583 70.164 C 141.117 71.591,137.517 75.082,134.583 77.920 C 131.650 80.758,128.012 84.284,126.500 85.755 C 124.987 87.226,122.587 89.555,121.167 90.932 C 114.761 97.137,112.659 99.249,112.703 99.436 C 112.729 99.546,114.250 101.612,116.083 104.027 C 117.916 106.441,120.693 110.104,122.254 112.167 C 123.815 114.229,126.815 118.193,128.921 120.975 C 131.027 123.757,134.063 127.769,135.668 129.892 C 137.273 132.014,140.120 135.775,141.994 138.250 C 143.869 140.725,148.095 146.313,151.386 150.667 C 154.677 155.021,157.446 158.677,157.539 158.792 C 157.673 158.958,155.691 158.999,147.729 158.994 L 137.750 158.988 135.486 155.952 C 134.240 154.283,127.414 145.154,120.317 135.667 C 113.220 126.179,106.063 116.601,104.415 114.381 C 102.766 112.162,101.379 110.344,101.333 110.343 C 101.202 110.337,99.968 111.513,93.917 117.413 C 90.800 120.451,87.669 123.487,86.958 124.159 L 85.667 125.380 85.667 142.190 L 85.667 159.000 77.667 159.000 L 69.667 159.000 69.667 107.667 L 69.667 56.333 77.667 56.333 L 85.667 56.333 85.667 81.458 M197.500 72.167 L 197.500 82.000 206.500 82.000 L 215.500 82.000 215.500 89.333 L 215.500 96.667 206.500 96.667 L 197.500 96.667 197.500 127.833 L 197.500 159.000 189.917 159.000 L 182.333 159.000 182.333 127.833 L 182.333 96.667 174.333 96.667 L 166.333 96.667 166.333 89.333 L 166.333 82.000 174.333 82.000 L 182.333 82.000 182.333 72.167 L 182.333 62.333 189.917 62.333 L 197.500 62.333 197.500 72.167 M253.833 72.167 L 253.833 82.000 262.833 82.000 L 271.833 82.000 271.833 89.333 L 271.833 96.667 262.833 96.667 L 253.833 96.667 253.833 127.833 L 253.833 159.000 246.250 159.000 L 238.667 159.000 238.667 127.833 L 238.667 96.667 230.667 96.667 L 222.667 96.667 222.667 89.333 L 222.667 82.000 230.667 82.000 L 238.667 82.000 238.667 72.167 L 238.667 62.333 246.250 62.333 L 253.833 62.333 253.833 72.167 M115.583 239.809 C 141.772 242.533,158.074 262.184,158.052 291.000 C 158.032 318.575,142.871 338.191,118.833 341.744 C 115.350 342.259,112.059 342.328,90.958 342.331 L 69.667 342.333 69.667 291.028 C 69.667 262.810,69.722 239.667,69.789 239.600 C 69.996 239.393,113.498 239.593,115.583 239.809 M85.667 291.002 L 85.667 327.022 99.792 326.956 C 115.333 326.884,115.327 326.884,119.736 325.748 C 133.254 322.263,141.393 309.861,141.783 292.152 C 142.203 273.051,133.500 259.413,118.667 255.929 C 115.156 255.104,115.278 255.110,100.042 255.045 L 85.667 254.983 85.667 291.002 M214.501 263.757 C 226.875 265.289,237.053 272.995,242.116 284.667 C 244.414 289.963,245.072 293.741,245.079 301.667 L 245.083 307.417 215.625 307.459 C 190.636 307.495,186.167 307.536,186.167 307.732 C 186.167 308.053,186.775 310.907,187.059 311.917 C 190.224 323.173,199.918 329.858,213.083 329.864 C 221.011 329.867,225.613 328.092,233.092 322.149 C 233.791 321.594,234.384 321.165,234.410 321.195 C 234.436 321.225,235.833 323.275,237.513 325.750 C 239.194 328.225,240.857 330.662,241.208 331.167 L 241.848 332.083 240.965 332.888 C 231.055 341.928,215.465 345.727,200.795 342.675 C 179.765 338.301,167.310 317.673,171.836 294.712 C 175.778 274.712,194.321 261.258,214.501 263.757 M269.325 265.792 C 269.442 266.044,269.934 267.225,270.418 268.417 C 270.903 269.608,271.652 271.446,272.083 272.500 C 273.366 275.636,274.323 277.976,275.083 279.833 C 275.477 280.796,276.145 282.427,276.566 283.458 C 276.988 284.490,277.679 286.177,278.100 287.208 C 278.522 288.240,279.275 290.096,279.774 291.333 C 280.272 292.571,280.750 293.733,280.837 293.917 C 280.923 294.100,281.400 295.262,281.896 296.500 C 282.393 297.737,283.144 299.594,283.566 300.625 C 283.988 301.656,284.663 303.306,285.066 304.292 C 285.470 305.277,286.137 306.908,286.549 307.917 C 286.962 308.925,287.653 310.612,288.085 311.667 C 288.517 312.721,289.430 314.971,290.114 316.667 C 290.798 318.362,291.410 319.804,291.474 319.871 C 291.538 319.937,292.556 317.724,293.736 314.954 C 294.916 312.183,295.978 309.692,296.096 309.417 C 296.214 309.142,297.819 305.354,299.663 301.000 C 301.506 296.646,303.082 292.933,303.165 292.750 C 303.302 292.443,307.023 283.674,312.534 270.667 L 314.758 265.417 322.651 265.373 C 328.977 265.339,330.512 265.372,330.383 265.540 C 330.295 265.656,329.946 266.404,329.608 267.204 C 329.269 268.004,328.741 269.204,328.433 269.871 C 328.125 270.538,327.683 271.533,327.451 272.083 C 327.219 272.633,326.770 273.646,326.454 274.333 C 326.138 275.021,325.521 276.408,325.084 277.417 C 324.647 278.425,324.119 279.625,323.910 280.083 C 323.700 280.542,323.216 281.629,322.833 282.500 C 322.450 283.371,322.000 284.383,321.833 284.750 C 321.666 285.117,321.216 286.129,320.833 287.000 C 320.450 287.871,320.000 288.883,319.833 289.250 C 319.666 289.617,319.216 290.629,318.833 291.500 C 318.450 292.371,318.001 293.383,317.836 293.750 C 317.670 294.117,314.857 300.454,311.584 307.833 C 308.311 315.212,305.497 321.550,305.331 321.917 C 305.165 322.283,304.717 323.296,304.334 324.167 C 303.951 325.037,303.468 326.125,303.261 326.583 C 303.053 327.042,301.395 330.774,299.576 334.877 L 296.267 342.338 290.776 342.294 L 285.285 342.250 284.901 341.333 C 284.250 339.782,279.454 328.429,276.592 321.667 C 275.099 318.137,272.640 312.325,271.128 308.750 C 269.615 305.175,267.172 299.400,265.699 295.917 C 264.225 292.433,261.961 287.071,260.668 284.000 C 259.375 280.929,258.248 278.267,258.165 278.083 C 257.688 277.029,252.833 265.507,252.833 265.428 C 252.833 265.376,256.496 265.333,260.973 265.333 L 269.113 265.333 269.325 265.792 M207.000 277.664 C 196.216 278.737,189.718 284.026,187.081 293.875 L 186.691 295.333 208.262 295.333 C 228.695 295.333,229.833 295.318,229.833 295.042 C 229.809 284.646,219.059 276.464,207.000 277.664 " stroke="none" fill="#242424" fill-rule="evenodd"></path><path id="path2" d="M215.410 89.333 C 215.410 93.412,215.432 95.081,215.458 93.042 C 215.485 91.002,215.485 87.665,215.458 85.625 C 215.432 83.585,215.410 85.254,215.410 89.333 M271.743 89.333 C 271.743 93.412,271.765 95.081,271.792 93.042 C 271.818 91.002,271.818 87.665,271.792 85.625 C 271.765 83.585,271.743 85.254,271.743 89.333 M141.892 291.000 C 141.892 291.779,141.920 292.098,141.955 291.708 C 141.990 291.319,141.990 290.681,141.955 290.292 C 141.920 289.902,141.892 290.221,141.892 291.000 " stroke="none" fill="#8c8c8c" fill-rule="evenodd"></path><path id="path3" d="M69.749 107.667 C 69.749 135.946,69.768 147.515,69.792 133.375 C 69.815 119.235,69.815 96.098,69.792 81.958 C 69.768 67.819,69.749 79.387,69.749 107.667 M152.240 60.708 L 151.750 61.250 152.292 60.760 C 152.590 60.491,152.833 60.248,152.833 60.219 C 152.833 60.090,152.696 60.203,152.240 60.708 M146.409 66.375 L 145.750 67.083 146.458 66.425 C 147.117 65.812,147.243 65.667,147.117 65.667 C 147.090 65.667,146.771 65.985,146.409 66.375 M140.667 71.917 C 140.262 72.329,139.968 72.667,140.014 72.667 C 140.060 72.667,140.428 72.329,140.833 71.917 C 141.238 71.504,141.532 71.167,141.486 71.167 C 141.440 71.167,141.072 71.504,140.667 71.917 M135.740 76.708 L 135.250 77.250 135.792 76.760 C 136.090 76.491,136.333 76.248,136.333 76.219 C 136.333 76.090,136.196 76.203,135.740 76.708 M129.833 82.417 C 129.428 82.829,129.135 83.167,129.181 83.167 C 129.226 83.167,129.595 82.829,130.000 82.417 C 130.405 82.004,130.699 81.667,130.653 81.667 C 130.607 81.667,130.238 82.004,129.833 82.417 M124.167 87.917 C 123.762 88.329,123.468 88.667,123.514 88.667 C 123.560 88.667,123.928 88.329,124.333 87.917 C 124.738 87.504,125.032 87.167,124.986 87.167 C 124.940 87.167,124.572 87.504,124.167 87.917 M118.740 93.208 L 118.250 93.750 118.792 93.260 C 119.090 92.991,119.333 92.748,119.333 92.719 C 119.333 92.590,119.196 92.703,118.740 93.208 M113.086 98.664 C 112.730 99.029,112.471 99.352,112.511 99.383 C 112.551 99.413,112.874 99.114,113.230 98.719 C 114.042 97.816,113.949 97.780,113.086 98.664 M100.740 110.708 L 100.250 111.250 100.792 110.760 C 101.090 110.491,101.333 110.248,101.333 110.219 C 101.333 110.090,101.196 110.203,100.740 110.708 M94.833 116.417 C 94.428 116.829,94.135 117.167,94.181 117.167 C 94.226 117.167,94.595 116.829,95.000 116.417 C 95.405 116.004,95.699 115.667,95.653 115.667 C 95.607 115.667,95.238 116.004,94.833 116.417 M88.911 122.208 L 87.917 123.250 88.958 122.255 C 89.926 121.331,90.076 121.167,89.953 121.167 C 89.927 121.167,89.459 121.635,88.911 122.208 M69.744 239.708 C 69.700 239.823,69.684 262.979,69.708 291.167 L 69.751 342.417 69.792 291.042 L 69.833 239.668 90.208 239.625 L 110.583 239.582 90.203 239.541 C 74.022 239.508,69.807 239.543,69.744 239.708 M91.863 254.958 C 95.316 254.983,101.016 254.983,104.529 254.958 C 108.042 254.933,105.217 254.913,98.250 254.913 C 91.283 254.913,88.409 254.933,91.863 254.958 M207.627 263.618 C 207.834 263.658,208.134 263.656,208.294 263.615 C 208.453 263.573,208.283 263.540,207.917 263.542 C 207.550 263.544,207.420 263.578,207.627 263.618 M212.208 263.615 C 212.369 263.657,212.631 263.657,212.792 263.615 C 212.952 263.573,212.821 263.539,212.500 263.539 C 212.179 263.539,212.048 263.573,212.208 263.615 M192.242 283.875 L 191.583 284.583 192.292 283.925 C 192.950 283.312,193.077 283.167,192.950 283.167 C 192.923 283.167,192.605 283.485,192.242 283.875 M158.053 289.667 C 158.053 290.262,158.084 290.506,158.121 290.208 C 158.158 289.910,158.158 289.423,158.121 289.125 C 158.084 288.827,158.053 289.071,158.053 289.667 M158.053 292.167 C 158.053 292.762,158.084 293.006,158.121 292.708 C 158.158 292.410,158.158 291.923,158.121 291.625 C 158.084 291.327,158.053 291.571,158.053 292.167 M245.000 307.055 C 245.000 307.313,242.888 307.335,215.542 307.375 L 186.083 307.418 215.547 307.459 C 246.356 307.502,245.736 307.514,245.104 306.882 C 245.047 306.825,245.000 306.903,245.000 307.055 M132.158 318.625 L 131.583 319.250 132.208 318.676 C 132.790 318.141,132.910 318.000,132.783 318.000 C 132.755 318.000,132.474 318.281,132.158 318.625 M211.627 329.951 C 211.834 329.991,212.134 329.990,212.294 329.948 C 212.453 329.906,212.283 329.874,211.917 329.875 C 211.550 329.877,211.420 329.911,211.627 329.951 M214.208 329.948 C 214.369 329.990,214.631 329.990,214.792 329.948 C 214.952 329.906,214.821 329.872,214.500 329.872 C 214.179 329.872,214.048 329.906,214.208 329.948 " stroke="none" fill="#6f6f6f" fill-rule="evenodd"></path><path id="path4" d="M85.567 58.750 C 85.567 60.125,85.593 60.665,85.624 59.951 C 85.655 59.236,85.655 58.111,85.624 57.451 C 85.592 56.790,85.566 57.375,85.567 58.750 M153.573 59.375 L 153.083 59.917 153.625 59.427 C 153.923 59.158,154.167 58.914,154.167 58.885 C 154.167 58.757,154.029 58.870,153.573 59.375 M182.412 72.167 C 182.412 77.621,182.433 79.852,182.458 77.125 C 182.484 74.398,182.484 69.935,182.458 67.208 C 182.433 64.481,182.412 66.712,182.412 72.167 M238.745 72.167 C 238.745 77.621,238.766 79.852,238.792 77.125 C 238.817 74.398,238.817 69.935,238.792 67.208 C 238.766 64.481,238.745 66.712,238.745 72.167 M148.167 64.583 C 147.762 64.996,147.468 65.333,147.514 65.333 C 147.560 65.333,147.928 64.996,148.333 64.583 C 148.738 64.171,149.032 63.833,148.986 63.833 C 148.940 63.833,148.572 64.171,148.167 64.583 M142.744 69.875 L 141.917 70.750 142.792 69.923 C 143.605 69.154,143.743 69.000,143.619 69.000 C 143.592 69.000,143.199 69.394,142.744 69.875 M131.491 80.792 L 130.917 81.417 131.542 80.842 C 132.123 80.308,132.243 80.167,132.116 80.167 C 132.088 80.167,131.807 80.448,131.491 80.792 M166.410 89.333 C 166.410 93.412,166.432 95.081,166.458 93.042 C 166.485 91.002,166.485 87.665,166.458 85.625 C 166.432 83.585,166.410 85.254,166.410 89.333 M222.743 89.333 C 222.743 93.412,222.765 95.081,222.792 93.042 C 222.818 91.002,222.818 87.665,222.792 85.625 C 222.765 83.585,222.743 85.254,222.743 89.333 M126.244 85.875 L 125.417 86.750 126.292 85.923 C 126.773 85.468,127.167 85.074,127.167 85.048 C 127.167 84.924,127.012 85.062,126.244 85.875 M120.491 91.458 L 119.917 92.083 120.542 91.509 C 121.123 90.974,121.243 90.833,121.116 90.833 C 121.088 90.833,120.807 91.115,120.491 91.458 M114.906 96.875 L 114.417 97.417 114.958 96.927 C 115.256 96.658,115.500 96.414,115.500 96.385 C 115.500 96.257,115.362 96.370,114.906 96.875 M182.415 127.833 C 182.415 145.021,182.434 152.052,182.458 143.458 C 182.482 134.865,182.482 120.802,182.458 112.208 C 182.434 103.615,182.415 110.646,182.415 127.833 M238.748 127.833 C 238.748 145.021,238.768 152.052,238.792 143.458 C 238.816 134.865,238.816 120.802,238.792 112.208 C 238.768 103.615,238.748 110.646,238.748 127.833 M96.742 114.542 L 96.083 115.250 96.792 114.591 C 97.181 114.229,97.500 113.910,97.500 113.883 C 97.500 113.757,97.355 113.883,96.742 114.542 M90.995 120.125 L 89.917 121.250 91.042 120.171 C 91.660 119.578,92.167 119.072,92.167 119.046 C 92.167 118.924,91.997 119.080,90.995 120.125 M85.580 142.250 C 85.580 151.508,85.600 155.320,85.625 150.721 C 85.650 146.122,85.650 138.547,85.625 133.888 C 85.600 129.229,85.580 132.992,85.580 142.250 M111.208 254.948 C 111.369 254.990,111.631 254.990,111.792 254.948 C 111.952 254.906,111.821 254.872,111.500 254.872 C 111.179 254.872,111.048 254.906,111.208 254.948 M85.582 291.000 C 85.582 310.846,85.601 318.965,85.625 309.042 C 85.649 299.119,85.649 282.881,85.625 272.958 C 85.601 263.035,85.582 271.154,85.582 291.000 M132.000 263.250 C 132.498 263.754,132.943 264.167,132.989 264.167 C 133.034 264.167,132.665 263.754,132.167 263.250 C 131.669 262.746,131.224 262.333,131.178 262.333 C 131.132 262.333,131.502 262.746,132.000 263.250 M209.542 263.623 C 209.977 263.657,210.690 263.657,211.125 263.623 C 211.560 263.588,211.204 263.560,210.333 263.560 C 209.463 263.560,209.106 263.588,209.542 263.623 M234.417 273.500 C 234.868 273.958,235.275 274.333,235.321 274.333 C 235.367 274.333,235.035 273.958,234.583 273.500 C 234.132 273.042,233.725 272.667,233.679 272.667 C 233.633 272.667,233.965 273.042,234.417 273.500 M182.242 274.875 L 181.583 275.583 182.292 274.925 C 182.950 274.312,183.077 274.167,182.950 274.167 C 182.923 274.167,182.605 274.485,182.242 274.875 M141.881 288.917 C 141.882 289.375,141.915 289.543,141.953 289.289 C 141.991 289.036,141.990 288.661,141.951 288.456 C 141.911 288.251,141.880 288.458,141.881 288.917 M141.879 293.000 C 141.879 293.412,141.911 293.581,141.951 293.375 C 141.991 293.169,141.991 292.831,141.951 292.625 C 141.911 292.419,141.879 292.587,141.879 293.000 M245.056 305.167 C 245.056 305.854,245.085 306.135,245.121 305.792 C 245.157 305.448,245.157 304.885,245.121 304.542 C 245.085 304.198,245.056 304.479,245.056 305.167 M91.875 327.125 C 95.244 327.150,100.756 327.150,104.125 327.125 C 107.494 327.100,104.737 327.079,98.000 327.079 C 91.263 327.079,88.506 327.100,91.875 327.125 M215.375 329.948 C 215.535 329.990,215.798 329.990,215.958 329.948 C 216.119 329.906,215.987 329.872,215.667 329.872 C 215.346 329.872,215.215 329.906,215.375 329.948 M210.963 343.789 C 211.355 343.824,211.955 343.824,212.296 343.788 C 212.637 343.752,212.317 343.723,211.583 343.724 C 210.850 343.724,210.571 343.754,210.963 343.789 " stroke="none" fill="#949494" fill-rule="evenodd"></path></g></svg>